<mxfile host="65bd71144e">
    <diagram id="E1sdHEBPPG3m4i1ZjsSF" name="Page-1">
        <mxGraphModel dx="1285" dy="607" grid="1" gridSize="10" guides="1" tooltips="1" connect="1" arrows="1" fold="1" page="1" pageScale="1" pageWidth="850" pageHeight="1100" math="0" shadow="0">
            <root>
                <mxCell id="0"/>
                <mxCell id="1" parent="0"/>
                <mxCell id="3" value="" style="rounded=0;whiteSpace=wrap;html=1;" vertex="1" parent="1">
                    <mxGeometry x="20" y="100" width="810" height="450" as="geometry"/>
                </mxCell>
                <mxCell id="4" value="10.0.12.0/22" style="rounded=0;whiteSpace=wrap;html=1;" vertex="1" parent="1">
                    <mxGeometry x="145" y="213.75" width="150" height="247.5" as="geometry"/>
                </mxCell>
                <mxCell id="5" value="10.0.8.0/22" style="rounded=0;whiteSpace=wrap;html=1;" vertex="1" parent="1">
                    <mxGeometry x="365" y="215" width="140" height="250" as="geometry"/>
                </mxCell>
                <mxCell id="6" value="10.0.0/21" style="rounded=0;whiteSpace=wrap;html=1;" vertex="1" parent="1">
                    <mxGeometry x="575" y="215" width="140" height="250" as="geometry"/>
                </mxCell>
                <mxCell id="7" value="us-east-1a" style="text;html=1;strokeColor=none;fillColor=none;align=center;verticalAlign=middle;whiteSpace=wrap;rounded=0;" vertex="1" parent="1">
                    <mxGeometry x="190" y="183.75" width="60" height="30" as="geometry"/>
                </mxCell>
                <mxCell id="8" value="us-east-1b" style="text;html=1;strokeColor=none;fillColor=none;align=center;verticalAlign=middle;whiteSpace=wrap;rounded=0;" vertex="1" parent="1">
                    <mxGeometry x="405" y="186.25" width="60" height="30" as="geometry"/>
                </mxCell>
                <mxCell id="9" value="us-east-1c" style="text;html=1;strokeColor=none;fillColor=none;align=center;verticalAlign=middle;whiteSpace=wrap;rounded=0;" vertex="1" parent="1">
                    <mxGeometry x="615" y="185" width="60" height="30" as="geometry"/>
                </mxCell>
                <mxCell id="14" value="10.0.0.0/20" style="text;html=1;strokeColor=none;fillColor=none;align=center;verticalAlign=middle;whiteSpace=wrap;rounded=0;" vertex="1" parent="1">
                    <mxGeometry x="20" y="100" width="90" height="30" as="geometry"/>
                </mxCell>
            </root>
        </mxGraphModel>
    </diagram>
</mxfile>